<svg xmlns="http://www.w3.org/2000/svg" width="1200" height="300" viewBox="0 0 1200 300" role="img" aria-label="Eco city skyline silhouette">
  <rect width="1200" height="300" fill="none"/>
  <g fill="#2563EB" opacity="0.15">
    <rect x="20" y="140" width="60" height="140" rx="4"/>
    <rect x="120" y="110" width="80" height="170" rx="4"/>
    <rect x="240" y="160" width="50" height="120" rx="4"/>
    <rect x="320" y="100" width="70" height="180" rx="4"/>
    <rect x="420" y="130" width="60" height="150" rx="4"/>
    <rect x="510" y="170" width="80" height="110" rx="4"/>
    <rect x="620" y="120" width="70" height="160" rx="4"/>
    <rect x="710" y="150" width="60" height="130" rx="4"/>
    <rect x="790" y="90" width="90" height="190" rx="4"/>
    <rect x="900" y="140" width="60" height="140" rx="4"/>
    <rect x="980" y="120" width="75" height="160" rx="4"/>
    <rect x="1070" y="170" width="70" height="110" rx="4"/>
  </g>
</svg>
